<?xml version="1.0" standalone="no"?><!DOCTYPE svg PUBLIC "-//W3C//DTD SVG 1.1//EN" "http://www.w3.org/Graphics/SVG/1.1/DTD/svg11.dtd"><svg t="1734529379028" class="icon" viewBox="0 0 1024 1024" version="1.1" xmlns="http://www.w3.org/2000/svg" p-id="5618" xmlns:xlink="http://www.w3.org/1999/xlink" width="32" height="32"><path d="M719.2 335.1l-2.4-11.4-3-10.8-5.4-7.8-5.4-8.4-5.4-5.4-8.4-3-16.2-2.4-11.4-3-5.4-3-2.4-5.4-3-21.6-2.4-8.4-3-8.4-5.4-5.4-8.4-2.4-8.4-3h-7.8l-16.8-2.4-5.4-5.4-2.4-3 2.4-3v-21.6l-2.4-5.4-5.4-5.4H577l-13.8 5.4-8.4 2.4h-5.4l-7.8-2.4-6-5.4-7.8-13.8-8.4-16.8-8.4-35.4-2.4-21.6-3 5.4h-5.4l-8.4-3L481 83.1l-10.8-3-8.4-2.4-7.8-3-8.4 3-10.8 5.4-8.4 10.8-8.4 13.8-2.4 10.8-3 11.4-19.2 2.4-5.4 38.4h-10.8l-3 30-16.2 13.8v35.3l-3 11.4-2.4 5.4-3 2.4-2.4 3h-3l-2.4 30-16.8 5.4-5.4 3-3 5.4v10.8l6 5.4 7.8 5.4 13.8 13.8 5.4 8.4v13.8l-2.4 7.8-3 5.4-8.4 5.4-7.8 6-6 11-6 10.8-2.4 13.8-3 21.6v11.4l5.4 5.4 8.4 16.2 3 10.8v11.4l-5.4 7.8-8.4 11.4-8.4 7.8-5.4 5.4v8.4l10.8 3 11.4 2.4 10.8 3 8.4 5.4 2.4 2.4v11.4l-5.4 5.4-5.4 5.4-5.4 8.4-5.4 19.2V685.8l2.4 10.8 5.4 5.4 13.8 5.4 10.8 3 5.4 5.4 3 5.4v2.4l-35.5 87.7 19.2 8.4-13.8 33-5.4 27v41.5l5.4 13.8 5.4 10.8 5.4 5.4 16.2 10.8 3 5.4 3-16.2 5.4-10.8 5.4-8.4 5.4-2.4 13.8-6h5.4l33-2.4 19.2-3 7.8-43.8 8.4-5.4 5.4-5.4 8.4-13.8 7.8-19.2 11.4-7.8 19.2 13.2 19.2 11.4 16.2 7.8 13.8 3h30.5l13.8 8.4L626 869l5.4-2.4 3-3 5.4-19.2 8.4-5.4 2.4-10.8v-27.6l5.4-8.4 8.4-10.8 13.8-7.8 7.8-6 5.4-7.8 6-13.8V729.8L689 716l-3-13.8v-13.8l5.4-8.4v-8l-5.4-8.4-13.2-13.8-8.4-7.8-3-8.4v-16.2l5.4-11.4 3-5.4v-19.2l8.4-10.8 30.1-22.2 8.4-24.6 10.8-24.6 27-40.8 6-10.8V420l-3-10.8-10.8-22.2-11.4-16.2-7.8-10.8-5.4-11.4-2.9-13.5z" fill="#20AE97" p-id="5619"></path></svg>