<?xml version="1.0" standalone="no"?><!DOCTYPE svg PUBLIC "-//W3C//DTD SVG 1.1//EN" "http://www.w3.org/Graphics/SVG/1.1/DTD/svg11.dtd"><svg t="1740578994960" class="icon" viewBox="0 0 2048 1024" version="1.1" xmlns="http://www.w3.org/2000/svg" p-id="5880" xmlns:xlink="http://www.w3.org/1999/xlink" width="64" height="32"><path d="M2048 0v768a256 256 0 0 1-256 256H0V256a256 256 0 0 1 256-256h1792zM1038.72 302.08c-70.4 0-125.44 22.4-165.12 68.48-38.4 43.52-56.96 99.84-56.96 169.6 0 69.12 18.56 125.44 56.96 168.96 39.68 44.8 94.72 67.84 165.12 67.84 69.76 0 124.8-22.4 165.12-67.2 38.4-42.88 57.6-99.2 57.6-169.6 0-70.4-19.2-127.36-57.6-170.24-40.32-45.44-95.36-67.84-165.12-67.84z m-599.04 8.96H364.8V768h74.88V565.76h231.68V768h74.88V311.04h-74.88v190.72H439.68V311.04z m1231.36 0h-374.4v64h149.76V768h74.88V375.04h149.76v-64z m-632.32 56.96c47.36 0 83.84 14.72 109.44 45.44 24.96 30.72 37.76 72.96 37.76 126.72 0 53.76-12.8 95.36-37.76 125.44-25.6 30.08-62.08 45.44-109.44 45.44s-84.48-16-110.08-47.36c-24.96-30.72-37.12-71.68-37.12-123.52 0-52.48 12.16-93.44 37.12-124.16 26.24-32 62.72-48 110.08-48z" fill="#FF8E04" p-id="5881"></path></svg>