<?xml version="1.0" standalone="no"?><!DOCTYPE svg PUBLIC "-//W3C//DTD SVG 1.1//EN" "http://www.w3.org/Graphics/SVG/1.1/DTD/svg11.dtd"><svg t="1741088610202" class="icon" viewBox="0 0 1024 1024" version="1.1" xmlns="http://www.w3.org/2000/svg" p-id="26132" xmlns:xlink="http://www.w3.org/1999/xlink" width="32" height="32"><path d="M660.48 721.28" fill="#66180C" p-id="26133"></path><path d="M200.05376 170.27584 130.44224 170.27584l4.60288-51.9936c2.47296-27.67872 20.43392-41.2416 53.94944-40.6784l114.90304 0 1.90464-21.39136 69.18656 0-1.90976 21.39136 114.06848 0c31.5904 0 46.18752 13.55264 43.77088 40.6784l-4.61312 51.9936L457.1136 170.27584l1.29536-14.67904c1.57696-17.8944-7.8336-26.83904-28.24704-26.83904L203.7248 128.75776 200.05376 170.27584zM130.9696 428.59008l2.00192-22.64064 16.29184-183.25504 2.03264-23.06048 2.05312-23.0656L459.0592 176.56832c31.31392 0 45.72672 13.83936 43.27936 41.51296l-3.75808 42.35776-3.80928 38.15936-40.25856 0-242.3808 0-2.50368 28.09344 246.15424 0c31.31392 0 45.7216 14.11584 43.2128 42.35264l-7.79776 83.03616-40.67328 0L128.88064 452.08064 130.9696 428.59008zM405.48352 222.6944 218.88 222.6944l-2.65728 29.76768L429.6704 252.46208l0.8448-9.64096C431.72352 229.4016 423.37792 222.6944 405.48352 222.6944zM404.31104 372.81792 205.53728 372.81792l-2.95424 33.13152 223.5136 0 1.2288-13.83936C428.47744 379.24864 420.80256 372.81792 404.31104 372.81792z" fill="#E24826" p-id="26134"></path><path d="M669.55776 190.82752l215.54176 0c35.7888 0 52.28544 18.72896 49.5104 56.18688l-14.72 165.64736c-2.87232 26.28096-17.44384 39.424-43.7248 39.424l-102.31296 0 4.82816-54.51776 60.38528 0c6.71232 0 10.368-3.34848 10.95168-10.0608l9.99936-112.384c1.52064-17.33632-7.48032-26.00448-27.05408-26.00448l-170.25536 0-40.448 200.448-72.1664 0.41984 60.2368-309.89824-47.80544 0 4.8384-54.51264 161.02912 0 2.62144-29.35296 72.13056 0-2.62144 29.35296 162.70336 0-4.97664 55.77728-277.57568 0L669.55776 190.82752z" fill="#E24826" p-id="26135"></path><path d="M136.11008 592.47104l-29.69088 334.21824c-1.6384 18.45248-10.9824 27.66848-28.03712 27.66848l-17.6128 0 32.14848-361.89184L136.11008 592.46592zM216.40704 571.49952l-7.09632 79.68256 19.712 0-5.21216 58.71104-19.70688 0-22.87104 257.47968L120.42752 967.3728l35.16928-395.86816L216.40704 571.50464zM473.81504 761.05216l-4.8384 54.50752L357.84704 815.55968l-7.74144 20.97152 56.192 0 49.19296 130.8416-67.9424 0-45.80864-117.00224-16.4352 29.34784c-32.16896 47.52896-71.53152 76.73856-118.0672 87.64928l6.62528-70.0416c34.47808-19.85024 57.30816-47.10912 68.50048-81.77152L224.91136 815.55456l4.84352-54.50752 66.25792 0 6.9888-78.83776c1.39264-15.65184-4.90496-23.48032-18.87744-23.48032l-33.96608 0 4.8384-54.50752 54.9376 0 2.9184-32.72192 69.18656 0-2.9184 32.72192 44.87168 0c32.43008 0 47.32416 16.62976 44.64128 49.88928l-9.4976 106.94144L473.81504 761.05216zM406.6048 686.8224c1.664-18.72896-4.64384-28.08832-18.89792-28.08832l-13.41952 0-9.07264 102.31808 34.80064 0L406.6048 686.8224z" fill="#E24826" p-id="26136"></path><path d="M515.54816 668.78976l54.51776 0c31.88224 0 46.3104 16.9216 43.29984 50.7392l-16.44544 184.93952 39.41888 0-5.41696 61.21984-58.29632 0c-31.26784-0.55808-45.7728-18.02752-43.56608-52.41856l15.0016-169.00096c1.42848-12.86144-3.87072-19.29216-15.89248-19.29216l-17.60768 0L515.54816 668.78976zM538.04032 609.24928c0.89088-10.07104 5.51936-18.88256 13.87008-26.4192 8.36096-7.552 18.00192-11.33056 28.9024-11.33056 10.62912 0 19.4304 3.77856 26.45504 11.33056 7.0144 7.54176 10.0864 16.34816 9.19552 26.4192-0.95232 10.61888-5.59616 19.70176-13.94688 27.24864-8.37632 7.552-17.86368 11.33056-28.48768 11.33056-10.9056 0-19.8656-3.77856-26.87488-11.33056S537.088 619.86816 538.04032 609.24928zM914.37568 635.24864c3.96288-41.37984-17.536-62.06976-64.4864-62.06976l-190.80704 0-4.92032 55.35232 163.95264 0c17.89952 0 26.09152 8.39168 24.61184 25.16992l-24.28928 273.41824c-2.39104 26.8288 10.12736 40.24832 37.51936 40.24832l28.91776 0L914.37568 635.24864zM805.54496 793.74848l4.9152-55.35232-48.64512 0 8.3456-93.93152-70.03136 0-8.3456 93.93152-47.39584 0-4.90496 55.35232 21.39136 0c17.33632 0 25.12896 9.6512 23.424 28.93824l-12.84608 144.68096 69.98016 0.41984 15.47264-174.03904L805.54496 793.74848z" fill="#E24826" p-id="26137"></path></svg>