<?xml version="1.0" standalone="no"?><!DOCTYPE svg PUBLIC "-//W3C//DTD SVG 1.1//EN" "http://www.w3.org/Graphics/SVG/1.1/DTD/svg11.dtd"><svg t="1740495531161" class="icon" viewBox="0 0 1024 1024" version="1.1" xmlns="http://www.w3.org/2000/svg" p-id="21941" xmlns:xlink="http://www.w3.org/1999/xlink" width="32" height="32"><path d="M154 354c49.706 0 90 40.294 90 90v400c0 49.706-40.294 90-90 90s-90-40.294-90-90V444c0-49.706 40.294-90 90-90zM612.784 91.415c20.192-2.2 41.36 4.402 59.765 17.465 38.412 27.263 58.768 76.7 46.85 128.087a30 30 0 0 1-0.2 0.808l-30.261 115.781H870c49.208 0 89.193 39.493 89.988 88.512l0.012 1.488a90 90 0 0 1-1.62 17l-76.935 400c-8.15 42.374-45.23 73-88.38 73H363c-49.706 0-90-40.294-90-90v-400c0-49.705 40.294-90 90-90h42.372a70 70 0 0 0 62.663-38.8l91.271-183.322 0.267-0.59c10.292-22.501 29.353-36.582 52.494-39.347zM154 414c-16.569 0-30 13.431-30 30v400c0 16.569 13.431 30 30 30 16.569 0 30-13.431 30-30V444c0-16.569-13.431-30-30-30z m483.822-256.192c-7.15-5.075-14.07-7.233-18.538-6.746-2.378 0.26-3.602 1.172-5.307 5.097l-0.211 0.475c-0.144 0.316-0.293 0.63-0.448 0.94l-91.572 183.923c-21.982 44.15-67.054 72.06-116.374 72.06H363c-16.569 0-30 13.43-30 30v400c0 16.568 13.431 30 30 30h430.065c14.383 0 26.743-10.21 29.46-24.334l76.935-400a30 30 0 0 0 0.54-5.667c0-16.568-13.432-30-30-30H650.09c-19.65 0-33.994-18.575-29.025-37.586l39.964-152.91 0.104-0.459c5.814-26.428-4.22-50.89-22.741-64.383z" fill="#333333" p-id="21942"></path></svg>