<?xml version="1.0" standalone="no"?><!DOCTYPE svg PUBLIC "-//W3C//DTD SVG 1.1//EN" "http://www.w3.org/Graphics/SVG/1.1/DTD/svg11.dtd"><svg t="1740495064184" class="icon" viewBox="0 0 1024 1024" version="1.1" xmlns="http://www.w3.org/2000/svg" p-id="11106" xmlns:xlink="http://www.w3.org/1999/xlink" width="32" height="32"><path d="M815.542857 438.766843a56.34709 56.34709 0 0 0-41.176719-21.446208h-145.337567c-14.583422 0-25.193651-2.528395-28.218694-6.637037-1.580247-2.212346-6.095238-12.055026 4.65044-45.691711 14.402822-45.511111 14.267372-115.041975-14.312522-154.186949-13.906173-18.962963-32.914286-29.031393-55.173192-29.031393-59.010935 0-82.940388 37.609877-87.771428 59.778483-16.208818 137.797531-65.512522 167.822222-81.585891 174.09806v426.440917h300.517813c82.579189 0 90.841623-40.454321 91.202822-45.78201 0 0 52.193298-228.503704 66.32522-289.140036 6.637037-28.805644 3.611993-51.832099-9.120282-68.402116zM321.467372 417.320635H218.480423a22.574956 22.574956 0 0 0-22.574956 22.574956v379.620458a22.574956 22.574956 0 0 0 22.574956 22.574956H321.467372V417.320635z" fill="#2c2c2c" p-id="11107"></path></svg>