<?xml version="1.0" standalone="no"?><!DOCTYPE svg PUBLIC "-//W3C//DTD SVG 1.1//EN" "http://www.w3.org/Graphics/SVG/1.1/DTD/svg11.dtd"><svg t="1741088393671" class="icon" viewBox="0 0 1077 1024" version="1.1" xmlns="http://www.w3.org/2000/svg" p-id="3750" xmlns:xlink="http://www.w3.org/1999/xlink" width="33.65625" height="32"><path d="M386.748632 5.281684C174.403368 5.281684 0 187.984842 0 411.648c0 113.340632 44.409263 214.123789 114.149053 286.558316l250.448842 261.443368c12.665263 12.611368 38.049684 12.611368 50.661052 0l250.502737-261.389473c69.739789-72.488421 114.149053-176.397474 114.149053-286.666106-6.359579-223.663158-180.709053-406.312421-393.162105-406.312421zM1077.894737 625.771789c0 69.308632-25.330526 135.437474-72.919579 179.523369l-161.684211 160.66021c-9.485474 9.431579-22.204632 9.431579-34.869894 0l-161.684211-160.606315c-3.179789-3.179789-3.179789-3.179789-3.179789-6.305685l66.56-69.308631c15.898947-15.737263 31.744-34.654316 44.409263-50.391579 15.845053 18.863158 44.355368 34.654316 72.919579 34.654316 53.894737 0 98.304-44.139789 98.304-94.531369s-44.409263-94.477474-98.304-94.477473c9.485474-40.96 15.845053-81.92 15.845052-119.646316v-31.528421A252.227368 252.227368 0 0 1 1077.894737 625.771789z m-336.033684 349.615158h-269.473685L538.947368 909.258105h133.12l69.793685 66.128842z m-355.112421-434.661052c-85.584842 0-152.144842-66.128842-152.144843-151.174737s69.739789-151.174737 152.144843-151.174737C469.207579 238.376421 538.947368 304.505263 538.947368 389.551158s-66.56 151.174737-152.198736 151.174737z" fill="#0ABB6D" p-id="3751"></path></svg>